<?xml version="1.0" standalone="no"?>
<!DOCTYPE svg PUBLIC "-//W3C//DTD SVG 20010904//EN"
 "http://www.w3.org/TR/2001/REC-SVG-20010904/DTD/svg10.dtd">
<svg version="1.0" xmlns="http://www.w3.org/2000/svg"
 width="1280.000000pt" height="1024.000000pt" viewBox="0 0 1280.000000 1024.000000"
 preserveAspectRatio="xMidYMid meet">

<g transform="translate(0.000000,1024.000000) scale(0.100000,-0.100000)"
fill="#000000" stroke="none">
<path d="M6260 7610 c-295 -19 -354 -32 -620 -139 -232 -94 -555 -277 -755
-429 -337 -256 -570 -559 -674 -879 -41 -125 -55 -225 -48 -346 12 -223 112
-379 286 -449 49 -20 74 -23 191 -22 171 1 261 23 425 104 336 168 611 456
885 930 39 69 69 116 66 104 -41 -140 -156 -967 -156 -1124 0 -44 9 -40 -147
-64 -179 -29 -252 -30 -318 -8 -54 19 -62 19 -83 6 -45 -30 -76 -130 -52 -173
5 -10 67 -76 138 -147 122 -123 278 -318 350 -438 49 -79 104 -214 141 -341
40 -135 70 -192 133 -251 131 -122 294 -135 496 -38 85 41 182 128 182 162 0
12 -4 22 -9 22 -22 0 -74 57 -100 109 -88 176 -131 440 -131 812 l0 207 31 6
c48 9 217 7 289 -4 36 -6 94 -20 129 -32 l63 -22 24 27 c30 35 47 100 41 157
-13 111 -144 142 -452 105 -65 -8 -120 -13 -121 -12 -3 4 16 375 37 712 25
393 23 654 -6 745 -25 82 -73 166 -116 205 -101 91 -271 72 -389 -44 -49 -48
-64 -72 -100 -161 -174 -424 -456 -879 -672 -1086 -190 -183 -353 -266 -523
-268 -150 -1 -252 49 -310 155 -28 50 -30 61 -30 159 0 118 12 164 77 294 77
155 183 286 343 424 415 357 1022 615 1606 682 676 77 1362 31 2021 -136 1083
-275 2004 -859 2503 -1589 82 -120 81 -105 -6 69 -201 399 -574 788 -1057
1100 -390 253 -940 494 -1447 636 -66 19 -132 42 -147 52 -82 56 -788 177
-1203 208 -205 15 -618 20 -785 10z m-423 -2612 c-4 -46 -7 -111 -7 -146 l0
-63 -72 74 c-40 41 -101 94 -135 119 l-61 45 121 25 c178 36 161 42 154 -54z"/>
<path d="M3450 7258 c-78 -52 -138 -127 -198 -248 -45 -92 -47 -98 -47 -185 0
-75 5 -101 27 -154 l27 -64 -34 -40 c-58 -68 -80 -123 -79 -199 2 -113 58
-194 175 -253 43 -23 59 -26 103 -20 135 17 215 74 255 181 30 78 29 130 -4
201 -31 68 -63 105 -125 141 -39 24 -55 27 -125 26 -44 0 -97 -6 -118 -12 -36
-10 -38 -9 -49 16 -5 15 -15 57 -21 94 -29 185 82 401 234 455 37 14 51 24 59
47 24 69 7 72 -80 14z m150 -723 c81 -42 57 -155 -33 -158 -82 -2 -120 94 -56
147 35 30 49 32 89 11z m-4 -196 c14 -15 16 -24 8 -37 -14 -22 -41 -27 -59
-12 -19 16 -19 35 1 54 20 21 27 20 50 -5z"/>
<path d="M3036 6454 c-42 -58 -99 -100 -211 -157 -94 -47 -154 -92 -166 -124
-5 -15 -14 -63 -20 -107 -5 -45 -14 -91 -19 -103 -5 -12 -41 -45 -79 -73 -77
-56 -91 -82 -91 -173 0 -48 1 -48 28 -43 152 31 276 40 567 41 304 2 349 5
450 27 108 23 185 84 185 146 0 18 -36 141 -44 149 -1 1 -35 -9 -76 -23 -43
-15 -107 -28 -152 -31 -71 -5 -82 -3 -135 23 -73 37 -144 108 -179 180 -32 66
-43 179 -25 264 6 29 10 54 9 55 -2 1 -21 -22 -42 -51z"/>
<path d="M7277 6121 c-20 -4 -39 -10 -41 -12 -6 -6 -43 -350 -61 -559 -22
-259 -30 -589 -16 -684 19 -133 79 -234 165 -278 79 -40 242 -2 318 74 74 74
89 125 110 368 19 225 45 350 80 395 45 58 64 17 73 -160 16 -310 33 -370 119
-414 38 -20 64 -25 120 -26 61 0 81 5 140 34 62 30 67 35 63 60 -8 39 20 259
49 390 47 212 114 391 167 449 50 55 52 20 8 -216 -52 -272 -65 -394 -58 -522
18 -317 191 -504 416 -446 239 61 421 337 460 698 6 54 11 99 11 102 0 10 -83
27 -90 19 -3 -4 -28 -69 -54 -143 -109 -310 -195 -424 -257 -340 -35 47 -43
159 -31 453 13 309 5 429 -34 547 -33 97 -64 144 -121 181 -65 40 -148 41
-224 1 -134 -70 -284 -332 -360 -632 l-12 -45 -13 62 c-29 139 -119 252 -219
273 -168 35 -283 -108 -342 -424 -9 -50 -20 -95 -24 -99 -4 -5 -10 58 -13 140
-15 349 -27 561 -36 607 -13 66 -43 110 -88 132 -41 20 -144 27 -205 15z"/>
<path d="M11055 4958 c3 -13 9 -66 14 -118 6 -56 19 -119 33 -155 21 -55 23
-75 23 -235 -1 -143 -5 -194 -24 -280 -101 -469 -367 -913 -715 -1194 -365
-295 -713 -396 -1328 -383 -346 7 -573 43 -898 144 -414 128 -721 338 -901
616 -106 163 -153 325 -167 569 l-7 133 -60 -60 c-92 -91 -125 -177 -125 -330
0 -110 25 -208 80 -319 30 -59 36 -76 22 -71 -9 4 -116 42 -237 85 -669 236
-1175 365 -1670 425 -71 9 -236 19 -365 22 -347 8 -579 -23 -849 -113 -241
-80 -465 -205 -656 -366 -94 -80 -184 -168 -172 -168 5 0 40 22 80 48 572 384
1106 460 1879 266 337 -84 667 -198 1448 -499 609 -235 1130 -424 1330 -483
670 -197 1307 -232 1840 -101 464 115 857 364 1122 712 291 381 471 953 455
1442 -6 169 -19 241 -62 326 -42 82 -103 141 -90 87z"/>
</g>
</svg>
